<svg xmlns="http://www.w3.org/2000/svg" xmlns:xlink="http://www.w3.org/1999/xlink" version="1.1" width="256" height="256" viewBox="0 0 256 256" xml:space="preserve">
<desc>Created with Fabric.js 1.7.22</desc>
<defs>
</defs>
<g transform="translate(128 128) scale(0.72 0.72)" style="">
	<g style="stroke: none; stroke-width: 0; stroke-dasharray: none; stroke-linecap: butt; stroke-linejoin: miter; stroke-miterlimit: 10; fill: none; fill-rule: nonzero; opacity: 1;" transform="translate(-175.05 -175.05000000000004) scale(3.89 3.89)" >
	<path d="M 9.864 82.901 c -0.189 0 -0.38 -0.037 -0.561 -0.113 c -0.539 -0.226 -0.89 -0.754 -0.89 -1.339 V 71.5 H 3.755 C 1.685 71.5 0 69.815 0 67.745 V 34.296 c 0 -2.071 1.685 -3.755 3.755 -3.755 h 49.673 c 2.07 0 3.755 1.685 3.755 3.755 v 33.449 c 0 2.07 -1.685 3.755 -3.755 3.755 H 22.075 L 10.881 82.485 C 10.604 82.757 10.237 82.901 9.864 82.901 z M 3.755 33.444 c -0.47 0 -0.852 0.382 -0.852 0.852 v 33.449 c 0 0.47 0.382 0.852 0.852 0.852 h 6.109 c 0.802 0 1.452 0.65 1.452 1.452 v 7.943 l 9.149 -8.979 c 0.272 -0.266 0.636 -0.416 1.017 -0.416 h 31.947 c 0.47 0 0.852 -0.382 0.852 -0.852 V 34.296 c 0 -0.47 -0.382 -0.852 -0.852 -0.852 H 3.755 z" style="stroke: none; stroke-width: 1; stroke-dasharray: none; stroke-linecap: butt; stroke-linejoin: miter; stroke-miterlimit: 10; fill: rgb(0,0,0); fill-rule: nonzero; opacity: 1;" transform=" matrix(1 0 0 1 0 0) " stroke-linecap="round" />
	<rect x="12.25" y="44.27" rx="0" ry="0" width="32.69" height="2.9" style="stroke: none; stroke-width: 1; stroke-dasharray: none; stroke-linecap: butt; stroke-linejoin: miter; stroke-miterlimit: 10; fill: rgb(0,0,0); fill-rule: nonzero; opacity: 1;" transform=" matrix(1 0 0 1 0 0) "/>
	<rect x="12.25" y="53.95" rx="0" ry="0" width="32.69" height="2.9" style="stroke: none; stroke-width: 1; stroke-dasharray: none; stroke-linecap: butt; stroke-linejoin: miter; stroke-miterlimit: 10; fill: rgb(0,0,0); fill-rule: nonzero; opacity: 1;" transform=" matrix(1 0 0 1 0 0) "/>
	<path d="M 80.136 59.459 c -0.373 0 -0.74 -0.144 -1.017 -0.416 L 67.925 48.058 h -6.041 v -2.903 h 6.634 c 0.38 0 0.745 0.149 1.017 0.416 l 9.148 8.979 v -7.943 c 0 -0.802 0.65 -1.452 1.452 -1.452 h 6.109 c 0.47 0 0.852 -0.382 0.852 -0.852 V 10.854 c 0 -0.47 -0.382 -0.852 -0.852 -0.852 H 36.572 c -0.47 0 -0.852 0.382 -0.852 0.852 v 13.98 h -2.903 v -13.98 c 0 -2.07 1.685 -3.755 3.755 -3.755 h 49.673 c 2.07 0 3.755 1.685 3.755 3.755 v 33.449 c 0 2.07 -1.685 3.755 -3.755 3.755 h -4.658 v 9.95 c 0 0.585 -0.351 1.112 -0.89 1.339 C 80.516 59.423 80.325 59.459 80.136 59.459 z" style="stroke: none; stroke-width: 1; stroke-dasharray: none; stroke-linecap: butt; stroke-linejoin: miter; stroke-miterlimit: 10; fill: rgb(0,0,0); fill-rule: nonzero; opacity: 1;" transform=" matrix(1 0 0 1 0 0) " stroke-linecap="round" />
	<rect x="45.06" y="20.83" rx="0" ry="0" width="32.69" height="2.9" style="stroke: none; stroke-width: 1; stroke-dasharray: none; stroke-linecap: butt; stroke-linejoin: miter; stroke-miterlimit: 10; fill: rgb(0,0,0); fill-rule: nonzero; opacity: 1;" transform=" matrix(1 0 0 1 0 0) "/>
	<rect x="63.98" y="30.5" rx="0" ry="0" width="13.77" height="2.9" style="stroke: none; stroke-width: 1; stroke-dasharray: none; stroke-linecap: butt; stroke-linejoin: miter; stroke-miterlimit: 10; fill: rgb(0,0,0); fill-rule: nonzero; opacity: 1;" transform=" matrix(1 0 0 1 0 0) "/>
</g>
</g>
</svg>