<?xml version="1.0" ?><svg id="Layer_1" style="enable-background:new 0 0 60 60;" version="1.1" viewBox="0 0 60 60" xml:space="preserve" xmlns="http://www.w3.org/2000/svg" xmlns:xlink="http://www.w3.org/1999/xlink"><path d="M9.53,49.31c0.09,0,0.17-0.03,0.25-0.05c0.21,0.03,0.42,0.05,0.64,0.05h36.21c2.13,0,3.95-1.45,4.42-3.54l3.84-17.07  c0.3-1.35-0.02-2.75-0.88-3.83c-0.86-1.08-2.15-1.7-3.54-1.7h-0.02V21.2c0-2.5-2.03-4.53-4.53-4.53h-19.8  c-0.7,0-1.38-0.29-1.86-0.81l-3.46-3.72c-0.85-0.92-2.06-1.45-3.32-1.45H9.53c-2.5,0-4.53,2.03-4.53,4.53v29.55  C5,47.27,7.03,49.31,9.53,49.31z M52.44,26.13c0.48,0.6,0.66,1.38,0.49,2.14l-3.84,17.07c-0.26,1.16-1.28,1.98-2.47,1.98H10.42  c-0.77,0-1.49-0.35-1.98-0.95s-0.66-1.38-0.49-2.14l3.84-17.07c0.26-1.16,1.28-1.98,2.47-1.98h36.21  C51.24,25.18,51.96,25.52,52.44,26.13z M9.53,12.69h7.95c0.7,0,1.38,0.29,1.85,0.81l3.46,3.72c0.85,0.92,2.06,1.45,3.32,1.45h19.8  c1.4,0,2.53,1.14,2.53,2.53v1.97H14.26c-2.13,0-3.95,1.45-4.42,3.54L7,39.31V15.23C7,13.83,8.14,12.69,9.53,12.69z"/><path d="M27.1,29.73c-0.3-0.22-0.71-0.25-1.04-0.08c-0.33,0.17-0.54,0.51-0.54,0.89v11.39c0,0.38,0.21,0.72,0.54,0.89  c0.14,0.07,0.3,0.11,0.46,0.11c0.21,0,0.41-0.06,0.59-0.19l5.27-3.82c0.45-0.32,0.55-0.95,0.22-1.4c-0.32-0.45-0.95-0.55-1.4-0.22  l-3.68,2.67V32.5l6.28,4.55c0.45,0.32,1.07,0.22,1.4-0.22c0.32-0.45,0.22-1.07-0.22-1.4L27.1,29.73z"/></svg>